<?xml version="1.0" encoding="utf-8"?>
<!-- Generator: Adobe Illustrator 25.1.0, SVG Export Plug-In . SVG Version: 6.00 Build 0)  -->
<svg version="1.1" id="Layer_1" xmlns="http://www.w3.org/2000/svg" xmlns:xlink="http://www.w3.org/1999/xlink" x="0px" y="0px"
	 viewBox="0 0 355 50" style="enable-background:new 0 0 355 50;" xml:space="preserve">
<style type="text/css">
	.st0{fill:#EDB72C;}
	.st1{fill:#FFFFFF;}
	.st2{fill:#475EAB;}
</style>
<g>
	<polygon class="st0" points="185.31,37.14 198.47,10.01 211.64,37.14 	"/>
	<path class="st1" d="M198.47,15.07l9.64,19.86h-19.28L198.47,15.07 M198.47,4.95l-3.98,8.19L184.86,33l-3.08,6.35h7.06h19.28h7.06
		L212.09,33l-9.64-19.86L198.47,4.95L198.47,4.95z"/>
	<g>
		<polygon class="st1" points="350.15,0 307.06,0 302.61,0 272.21,0 267.77,0 214.93,0 210.33,0 210.33,50 263.2,50 267.77,50 
			307.06,50 311.63,50 354.75,50 354.75,0 		"/>
		<path class="st1" d="M177.6,0h-30.4c-1.61,0-5.04,0-6.21,2.95V0h-32.96h-4.57H73.29h-4.57H46.93v3.24C45.22,0,41.48,0,39.5,0H0.25
			v50h28.27v-7.14H40.1c2.06,0,3.73-0.53,5.07-1.37V50h23.55h4.57h30.16h4.57h30.16h4.57h43.86V9.02C186.62,4.04,182.57,0,177.6,0z"
			/>
	</g>
	<g>
		<rect x="49.76" y="4.6" class="st2" width="18.93" height="40.81"/>
		<polygon class="st2" points="73.32,4.6 103.43,4.6 103.43,18 94.88,31.12 103.43,31.12 103.43,45.4 73.32,45.4 73.32,31.12 
			81.87,18.11 73.32,18.11 		"/>
		<polygon class="st2" points="108.05,4.6 138.16,4.6 138.16,18 129.61,31.12 138.16,31.12 138.16,45.4 108.05,45.4 108.05,31.12 
			116.6,18.11 108.05,18.11 		"/>
		<polygon class="st2" points="241.7,4.6 239.05,17.35 236.4,4.6 214.93,4.6 214.93,45.4 229.64,45.4 229.98,30.1 233.61,45.4 
			244.5,45.4 247.9,30.1 248.25,45.4 263.18,45.4 263.18,4.6 		"/>
		<polygon class="st2" points="335.71,4.6 335.71,16.07 330.9,4.6 311.65,4.6 311.65,45.4 326.09,45.4 326.09,33.93 330.9,45.4 
			350.15,45.4 350.15,4.6 		"/>
		<path class="st2" d="M39.5,4.6H4.85V45.4h19.08v-7.14c0,0,11.12,0,16.17,0c5.05,0,5.05-5.65,5.05-5.65s0-18.95,0-23.14
			C45.14,4.6,39.5,4.6,39.5,4.6z M28.01,26.98c0,0.46-0.37,0.83-0.83,0.83h-2.42c-0.46,0-0.83-0.37-0.83-0.83V15.87
			c0-0.46,0.37-0.83,0.83-0.83h2.42c0.46,0,0.83,0.37,0.83,0.83V26.98z"/>
		<path class="st2" d="M177.6,4.6h-30.4c-2.44,0-4.42,1.98-4.42,4.42V45.4h17.94v-6.29c0-0.47,0.37-0.85,0.83-0.85h2.42
			c0.46,0,0.83,0.38,0.83,0.85v6.29h17.22V9.02C182.02,6.58,180.04,4.6,177.6,4.6z M164.8,26.98c0,0.46-0.37,0.83-0.83,0.83h-2.42
			c-0.46,0-0.83-0.37-0.83-0.83V15.87c0-0.46,0.37-0.83,0.83-0.83h2.42c0.46,0,0.83,0.37,0.83,0.83V26.98z"/>
		<path class="st2" d="M302.61,4.6h-30.4c-2.44,0-4.42,1.98-4.42,4.42V45.4h17.94v-6.29c0-0.47,0.37-0.85,0.83-0.85h2.42
			c0.46,0,0.83,0.38,0.83,0.85v6.29h17.22V9.02C307.03,6.58,305.05,4.6,302.61,4.6z M289.81,26.98c0,0.46-0.37,0.83-0.83,0.83h-2.42
			c-0.46,0-0.83-0.37-0.83-0.83V15.87c0-0.46,0.37-0.83,0.83-0.83h2.42c0.46,0,0.83,0.37,0.83,0.83V26.98z"/>
	</g>
</g>
</svg>
